<svg width="28" height="18" viewBox="0 0 28 18" fill="none" xmlns="http://www.w3.org/2000/svg">
<path d="M17.746 11.25C14.494 11.25 8.00219 12.7462 8.00219 15.75V18H27.4898V15.75C27.4898 12.7462 20.998 11.25 17.746 11.25ZM6.78421 6.75V3.375H4.34826V6.75H0.694336V9H4.34826V12.375H6.78421V9H10.4381V6.75M17.746 9C19.0381 9 20.2773 8.52589 21.1909 7.68198C22.1046 6.83807 22.6179 5.69347 22.6179 4.5C22.6179 3.30653 22.1046 2.16193 21.1909 1.31802C20.2773 0.474106 19.0381 0 17.746 0C16.4539 0 15.2147 0.474106 14.301 1.31802C13.3874 2.16193 12.8741 3.30653 12.8741 4.5C12.8741 5.69347 13.3874 6.83807 14.301 7.68198C15.2147 8.52589 16.4539 9 17.746 9Z" fill="#303030"/>
</svg>
