<svg width="57" height="60" viewBox="0 0 57 60" fill="none" xmlns="http://www.w3.org/2000/svg">
<path d="M44.3294 8.61176L39.2118 13.7294C45.3176 17.4353 49.4118 24.1059 49.4118 31.7647C49.4118 37.3811 47.1807 42.7674 43.2093 46.7387C39.238 50.7101 33.8516 52.9412 28.2353 52.9412C22.6189 52.9412 17.2326 50.7101 13.2613 46.7387C9.28991 42.7674 7.05882 37.3811 7.05882 31.7647C7.05882 24.1059 11.1529 17.4353 17.2235 13.6941L12.1412 8.61176C4.8 13.6941 0 22.1647 0 31.7647C0 39.2532 2.97478 46.4349 8.26993 51.7301C13.5651 57.0252 20.7468 60 28.2353 60C35.7238 60 42.9055 57.0252 48.2007 51.7301C53.4958 46.4349 56.4706 39.2532 56.4706 31.7647C56.4706 22.1647 51.6706 13.6941 44.3294 8.61176ZM31.7647 0H24.7059V35.2941H31.7647" fill="#4FCF2F"/>
</svg>
