<svg width="25" height="25" viewBox="0 0 25 25" fill="none" xmlns="http://www.w3.org/2000/svg">
<path d="M22.9158 7.11891C22.9163 7.10963 22.9163 7.10033 22.9158 7.09106C22.9136 7.05506 22.909 7.01926 22.9018 6.98392C22.894 6.94762 22.884 6.91184 22.8718 6.87678C22.87 6.86942 22.8675 6.86225 22.8643 6.85535C22.8379 6.78401 22.8018 6.7166 22.7572 6.655C22.7526 6.64761 22.7475 6.64046 22.7422 6.63357C22.7186 6.60279 22.6932 6.57346 22.6661 6.54572L18.4513 2.33194C18.4241 2.30495 18.3951 2.27989 18.3645 2.25694L18.3431 2.24087C18.2811 2.19621 18.2133 2.16016 18.1416 2.13373L18.1224 2.12623C18.0874 2.11406 18.0516 2.1044 18.0152 2.0973C17.9777 2.09087 17.9402 2.08659 17.9081 2.08337H8.94268C8.50678 2.08366 8.0888 2.25687 7.78047 2.565C7.47214 2.87312 7.29866 3.29099 7.29809 3.72689V10.032C5.77741 10.2493 4.39554 11.0347 3.43079 12.2301C2.46603 13.4255 1.99006 14.942 2.09872 16.4743C2.20738 18.0066 2.89261 19.4408 4.01641 20.4881C5.1402 21.5353 6.61908 22.1179 8.1552 22.1184H21.2733C21.709 22.1178 22.1267 21.9445 22.4348 21.6364C22.7429 21.3283 22.9163 20.9106 22.9168 20.4749V7.15641C22.9168 7.14355 22.9168 7.1307 22.9158 7.11891ZM18.703 5.00291L19.9887 6.28858H18.703V5.00291ZM3.79572 16.0382C3.79557 15.2145 4.02876 14.4075 4.46829 13.7108C4.90783 13.0141 5.53572 12.4561 6.27926 12.1015C7.0228 11.747 7.85158 11.6102 8.66962 11.7072C9.48766 11.8042 10.2615 12.1309 10.9015 12.6495C11.5415 13.1681 12.0216 13.8574 12.286 14.6376C12.5505 15.4177 12.5885 16.2569 12.3958 17.0578C12.203 17.8587 11.7874 18.5886 11.1969 19.163C10.6065 19.7374 9.86536 20.1328 9.05946 20.3034L9.02196 20.3109C8.97803 20.3206 8.93303 20.327 8.88804 20.3356L8.79268 20.3506L8.7134 20.3613L8.5634 20.3784H8.53448C8.47019 20.3838 8.40484 20.3881 8.33948 20.3913C8.27949 20.3913 8.21949 20.3913 8.15842 20.3913C7.00329 20.3905 5.89557 19.9319 5.07786 19.116C4.26016 18.3001 3.79912 17.1934 3.79572 16.0382ZM12.3926 20.3977C13.3076 19.5082 13.9178 18.352 14.1357 17.0946H19.7369C19.9643 17.0946 20.1823 17.0043 20.343 16.8436C20.5037 16.6828 20.594 16.4648 20.594 16.2375C20.594 16.0102 20.5037 15.7922 20.343 15.6314C20.1823 15.4707 19.9643 15.3804 19.7369 15.3804H14.1936C14.1936 15.3675 14.1936 15.3547 14.1936 15.3418C14.1861 15.2765 14.1786 15.2111 14.1689 15.1468C14.1636 15.1104 14.1571 15.0751 14.1507 15.0397C14.1411 14.9797 14.1303 14.9197 14.1186 14.8608C14.1111 14.8222 14.1036 14.7847 14.095 14.7472C14.0821 14.6904 14.0693 14.6336 14.0554 14.5769L14.0264 14.4633C14.0114 14.4076 13.9954 14.3562 13.9793 14.2983C13.9675 14.2608 13.9568 14.2233 13.9439 14.1858C13.9268 14.1312 13.9086 14.0787 13.8893 14.024L13.8507 13.9169C13.8304 13.8622 13.8089 13.8097 13.7864 13.7562C13.7725 13.7219 13.7586 13.6865 13.7436 13.649C13.72 13.5933 13.6954 13.5419 13.6697 13.484C13.6547 13.453 13.6407 13.4219 13.6268 13.3908C13.5957 13.3276 13.5625 13.2655 13.5304 13.2033C13.5186 13.1819 13.5089 13.1605 13.4972 13.1391C13.4522 13.0566 13.405 12.9762 13.3568 12.8959C13.344 12.8734 13.3289 12.8519 13.315 12.8305C13.28 12.7726 13.2443 12.7159 13.2079 12.6601C13.1875 12.6291 13.165 12.5991 13.1447 12.5691C13.1125 12.523 13.0804 12.4769 13.0461 12.4309C13.0118 12.3848 12.9968 12.3666 12.9722 12.3344C12.9475 12.3023 12.9079 12.2509 12.8747 12.2102L12.7933 12.1137C12.7611 12.0752 12.7268 12.0355 12.6925 11.998C12.6903 11.994 12.6874 11.9904 12.684 11.9873H19.7455C19.9728 11.9873 20.1908 11.897 20.3516 11.7363C20.5123 11.5755 20.6026 11.3575 20.6026 11.1302C20.6026 10.9029 20.5123 10.6849 20.3516 10.5241C20.1908 10.3634 19.9728 10.2731 19.7455 10.2731H10.2101C10.1743 10.2735 10.1385 10.276 10.103 10.2806L10.0259 10.2559L9.90586 10.2195C9.853 10.2031 9.8005 10.1881 9.74836 10.1745L9.6273 10.1424L9.46444 10.1049L9.34552 10.0792L9.17196 10.0481L9.05839 10.0299L9.02089 10.0235V3.79117H16.9888V7.14784C16.9888 7.37516 17.0791 7.59317 17.2399 7.75391C17.4006 7.91465 17.6186 8.00495 17.8459 8.00495H21.2026V20.3977H12.3926ZM7.29702 16.0382V13.3469C7.29702 13.1196 7.38732 12.9016 7.54806 12.7408C7.7088 12.5801 7.92681 12.4898 8.15413 12.4898C8.38145 12.4898 8.59946 12.5801 8.7602 12.7408C8.92094 12.9016 9.01125 13.1196 9.01125 13.3469V15.1811H9.82657C10.0539 15.1811 10.2719 15.2714 10.4326 15.4322C10.5934 15.5929 10.6837 15.8109 10.6837 16.0382C10.6837 16.2656 10.5934 16.4836 10.4326 16.6443C10.2719 16.805 10.0539 16.8954 9.82657 16.8954H8.15628C7.92896 16.8954 7.71095 16.805 7.55021 16.6443C7.38947 16.4836 7.29916 16.2656 7.29916 16.0382H7.29702ZM16.4863 6.87999C16.4863 7.10731 16.396 7.32532 16.2353 7.48606C16.0746 7.6468 15.8565 7.7371 15.6292 7.7371H10.2037C9.97638 7.7371 9.75837 7.6468 9.59763 7.48606C9.43689 7.32532 9.34659 7.10731 9.34659 6.87999C9.34659 6.65267 9.43689 6.43466 9.59763 6.27392C9.75837 6.11318 9.97638 6.02288 10.2037 6.02288H15.6314C15.7439 6.02288 15.8554 6.04505 15.9594 6.08812C16.0634 6.1312 16.1578 6.19433 16.2374 6.27392C16.317 6.35351 16.3802 6.448 16.4232 6.55199C16.4663 6.65598 16.4885 6.76743 16.4885 6.87999H16.4863Z" fill="#303030"/>
</svg>
