<svg width="25" height="25" viewBox="0 0 25 25" fill="none" xmlns="http://www.w3.org/2000/svg">
<path d="M22.9156 7.11885C22.9161 7.10957 22.9161 7.10027 22.9156 7.09099C22.9134 7.055 22.9088 7.0192 22.9016 6.98386C22.8939 6.94756 22.8838 6.91178 22.8716 6.87672C22.8698 6.86936 22.8673 6.86219 22.8641 6.85529C22.8377 6.78394 22.8017 6.71654 22.757 6.65494C22.7524 6.64755 22.7474 6.6404 22.742 6.63351C22.7184 6.60273 22.693 6.5734 22.6659 6.54566L18.4511 2.33188C18.4239 2.30489 18.3949 2.27983 18.3643 2.25688L18.3429 2.24081C18.2809 2.19615 18.2131 2.1601 18.1415 2.13367L18.1222 2.12617C18.0872 2.114 18.0514 2.10434 18.015 2.09724C17.9775 2.09081 17.94 2.08653 17.9079 2.08331H8.94249C8.5066 2.0836 8.08862 2.25681 7.78029 2.56494C7.47196 2.87306 7.29848 3.29093 7.29791 3.72683V10.032C5.77723 10.2492 4.39536 11.0347 3.4306 12.23C2.46585 13.4254 1.98988 14.942 2.09854 16.4743C2.2072 18.0065 2.89243 19.4407 4.01622 20.488C5.14002 21.5353 6.61889 22.1178 8.15502 22.1183H21.2731C21.7088 22.1178 22.1265 21.9444 22.4346 21.6363C22.7427 21.3282 22.9161 20.9105 22.9166 20.4748V7.15635C22.9166 7.14349 22.9166 7.13064 22.9156 7.11885ZM18.7029 5.00285L19.9885 6.28852H18.7029V5.00285ZM3.79553 16.0382C3.79538 15.2144 4.02858 14.4075 4.46811 13.7107C4.90764 13.014 5.53553 12.4561 6.27908 12.1015C7.02262 11.7469 7.8514 11.6102 8.66943 11.7071C9.48747 11.8041 10.2613 12.1308 10.9013 12.6494C11.5414 13.1681 12.0214 13.8574 12.2858 14.6375C12.5503 15.4177 12.5884 16.2568 12.3956 17.0577C12.2029 17.8586 11.7872 18.5885 11.1967 19.1629C10.6063 19.7373 9.86518 20.1328 9.05928 20.3034L9.02178 20.3109C8.97785 20.3205 8.93285 20.327 8.88785 20.3355L8.7925 20.3505L8.71322 20.3612L8.56322 20.3784H8.53429C8.47001 20.3837 8.40466 20.388 8.3393 20.3912C8.2793 20.3912 8.2193 20.3912 8.15824 20.3912C7.0031 20.3904 5.89538 19.9318 5.07768 19.1159C4.25997 18.3 3.79893 17.1933 3.79553 16.0382ZM12.3924 20.3977C13.3074 19.5082 13.9176 18.352 14.1355 17.0946H19.7368C19.9641 17.0946 20.1821 17.0043 20.3428 16.8435C20.5036 16.6828 20.5939 16.4648 20.5939 16.2375C20.5939 16.0101 20.5036 15.7921 20.3428 15.6314C20.1821 15.4706 19.9641 15.3803 19.7368 15.3803H14.1934C14.1934 15.3675 14.1934 15.3546 14.1934 15.3418C14.1859 15.2764 14.1784 15.2111 14.1687 15.1468C14.1634 15.1104 14.157 15.075 14.1505 15.0396C14.1409 14.9796 14.1302 14.9196 14.1184 14.8607C14.1109 14.8222 14.1034 14.7847 14.0948 14.7472C14.082 14.6904 14.0691 14.6336 14.0552 14.5768L14.0262 14.4632C14.0112 14.4075 13.9952 14.3561 13.9791 14.2982C13.9673 14.2607 13.9566 14.2232 13.9437 14.1857C13.9266 14.1311 13.9084 14.0786 13.8891 14.024L13.8505 13.9168C13.8302 13.8622 13.8088 13.8097 13.7863 13.7561C13.7723 13.7218 13.7584 13.6865 13.7434 13.649C13.7198 13.5933 13.6952 13.5418 13.6695 13.484C13.6545 13.4529 13.6405 13.4218 13.6266 13.3908C13.5955 13.3276 13.5623 13.2654 13.5302 13.2033C13.5184 13.1819 13.5088 13.1604 13.497 13.139C13.452 13.0565 13.4048 12.9761 13.3566 12.8958C13.3438 12.8733 13.3288 12.8519 13.3148 12.8304C13.2798 12.7726 13.2441 12.7158 13.2077 12.6601C13.1873 12.629 13.1648 12.599 13.1445 12.569C13.1123 12.5229 13.0802 12.4769 13.0459 12.4308C13.0116 12.3847 12.9966 12.3665 12.972 12.3344C12.9474 12.3022 12.9077 12.2508 12.8745 12.2101L12.7931 12.1137C12.7609 12.0751 12.7266 12.0355 12.6924 11.998C12.6901 11.9939 12.6872 11.9903 12.6838 11.9873H19.7453C19.9726 11.9873 20.1907 11.8969 20.3514 11.7362C20.5121 11.5755 20.6024 11.3575 20.6024 11.1301C20.6024 10.9028 20.5121 10.6848 20.3514 10.5241C20.1907 10.3633 19.9726 10.273 19.7453 10.273H10.2099C10.1741 10.2734 10.1383 10.2759 10.1028 10.2805L10.0257 10.2559L9.90567 10.2195C9.85282 10.203 9.80032 10.188 9.74818 10.1745L9.62711 10.1423L9.46426 10.1048L9.34534 10.0791L9.17177 10.048L9.0582 10.0298L9.02071 10.0234V3.79111H16.9886V7.14778C16.9886 7.3751 17.0789 7.59311 17.2397 7.75385C17.4004 7.91459 17.6184 8.00489 17.8457 8.00489H21.2024V20.3977H12.3924ZM7.29684 16.0382V13.3468C7.29684 13.1195 7.38714 12.9015 7.54788 12.7408C7.70862 12.58 7.92663 12.4897 8.15395 12.4897C8.38127 12.4897 8.59928 12.58 8.76002 12.7408C8.92076 12.9015 9.01106 13.1195 9.01106 13.3468V15.1811H9.82639C10.0537 15.1811 10.2717 15.2714 10.4325 15.4321C10.5932 15.5928 10.6835 15.8109 10.6835 16.0382C10.6835 16.2655 10.5932 16.4835 10.4325 16.6442C10.2717 16.805 10.0537 16.8953 9.82639 16.8953H8.15609C7.92877 16.8953 7.71076 16.805 7.55002 16.6442C7.38928 16.4835 7.29898 16.2655 7.29898 16.0382H7.29684ZM16.4862 6.87993C16.4862 7.10725 16.3959 7.32526 16.2351 7.486C16.0744 7.64674 15.8564 7.73704 15.629 7.73704H10.2035C9.9762 7.73704 9.75819 7.64674 9.59745 7.486C9.43671 7.32526 9.34641 7.10725 9.34641 6.87993C9.34641 6.65261 9.43671 6.4346 9.59745 6.27386C9.75819 6.11312 9.9762 6.02282 10.2035 6.02282H15.6312C15.7437 6.02282 15.8552 6.04499 15.9592 6.08806C16.0632 6.13113 16.1577 6.19427 16.2373 6.27386C16.3168 6.35345 16.38 6.44794 16.4231 6.55193C16.4661 6.65592 16.4883 6.76737 16.4883 6.87993H16.4862Z" fill="#303030"/>
</svg>
