<svg width="25" height="25" viewBox="0 0 25 25" fill="none" xmlns="http://www.w3.org/2000/svg">
<path d="M21.1593 21.9591H3.84071C2.87184 21.9591 2.08331 21.2333 2.08331 20.3417V10.0841C2.08527 9.83661 2.14576 9.59314 2.25984 9.37355C2.37391 9.15396 2.53834 8.96449 2.73968 8.82062L11.3989 2.43621C11.7202 2.2067 12.1052 2.08331 12.5 2.08331C12.8948 2.08331 13.2797 2.2067 13.601 2.43621L22.2603 8.82062C22.4616 8.96449 22.626 9.15396 22.7401 9.37355C22.8542 9.59314 22.9147 9.83661 22.9166 10.0841V20.3417C22.9166 21.2333 22.1326 21.9591 21.1593 21.9591ZM3.87543 20.1669H21.1245V10.2095L12.5369 3.87438C12.5122 3.86656 12.4856 3.86656 12.4608 3.87438L3.87543 10.2095V20.1669Z" fill="#303030"/>
</svg>
