<svg width="25" height="25" viewBox="0 0 25 25" fill="none" xmlns="http://www.w3.org/2000/svg">
<path d="M21.1594 21.9591H3.84089C2.87203 21.9591 2.0835 21.2333 2.0835 20.3417V10.0841C2.08545 9.83661 2.14594 9.59314 2.26002 9.37355C2.3741 9.15396 2.53852 8.96449 2.73986 8.82062L11.3991 2.43621C11.7204 2.2067 12.1053 2.08331 12.5002 2.08331C12.895 2.08331 13.2799 2.2067 13.6012 2.43621L22.2605 8.82062C22.4618 8.96449 22.6262 9.15396 22.7403 9.37355C22.8544 9.59314 22.9149 9.83661 22.9168 10.0841V20.3417C22.9168 21.2333 22.1328 21.9591 21.1594 21.9591ZM3.87561 20.1669H21.1247V10.2095L12.5371 3.87438C12.5123 3.86656 12.4857 3.86656 12.461 3.87438L3.87561 10.2095V20.1669Z" fill="#303030"/>
</svg>
