<svg width="24" height="24" viewBox="0 0 24 24" fill="none" xmlns="http://www.w3.org/2000/svg">
<path d="M19.3641 4.18529C18.1054 2.51807 16.3654 1.80474 14.28 2.0456C10.21 2.51373 7.99626 6.93336 10.0813 10.4413C10.2909 10.7941 10.2438 10.9592 9.98357 11.2174C7.86643 13.3168 5.75642 15.4233 3.65354 17.537C3.5147 17.669 3.38524 17.8106 3.26609 17.9606C2.90957 18.4345 2.9006 18.8061 3.30425 19.2253C4.11387 20.0666 4.94006 20.8921 5.78283 21.7019C6.21655 22.1191 6.69364 22.0859 7.07561 21.6805C7.42924 21.3046 7.41507 20.8709 7.01489 20.4256C6.73557 20.1147 6.44006 19.8184 6.14744 19.5191C5.19904 18.5464 5.20482 18.5539 6.19429 17.6336C6.40045 17.4416 6.51871 17.4601 6.70029 17.6446C7.20168 18.154 7.70653 18.6609 8.23278 19.1452C8.71681 19.592 9.17945 19.5923 9.57009 19.1892C9.95552 18.7916 9.92545 18.3255 9.47264 17.8559C9.00104 17.3664 8.53783 16.867 8.03992 16.4053C7.77766 16.1621 7.8138 16.0166 8.04628 15.7879C9.17723 14.6749 10.2986 13.5525 11.4105 12.4208C11.6193 12.208 11.7532 12.2352 11.9819 12.3809C12.8533 12.9435 13.8723 13.2345 14.9095 13.2168C17.2646 13.0853 19.0689 12.1062 20.0358 9.85173C20.8995 7.83608 20.6702 5.91527 19.3641 4.18529ZM14.9401 11.3825C12.8085 11.3911 11.0985 9.70079 11.115 7.59001C11.1324 5.35952 12.9606 3.81258 14.8933 3.83109C17.0278 3.85277 18.6866 5.46506 18.6968 7.58163C18.7069 9.69819 17.0524 11.3738 14.9413 11.3825H14.9401Z" fill="#303030"/>
</svg>
