<svg width="15" height="15" viewBox="0 0 15 15" fill="none" xmlns="http://www.w3.org/2000/svg">
<path d="M11.4375 15L9.375 12.75L10.245 11.865L11.4375 13.0575L14.13 10.365L15 11.4225M12.375 1.125L11.25 0L10.125 1.125L9 0L7.875 1.125L6.75 0L5.625 1.125L4.5 0L3.375 1.125L2.25 0L1.125 1.125L0 0V15L1.125 13.875L2.25 15L3.375 13.875L4.5 15L5.625 13.875L6.75 15L7.695 14.055C7.5675 13.635 7.5 13.1925 7.5 12.75C7.5 12.24 7.59 11.73 7.755 11.25H2.25V9.75H8.6475C9.5025 8.7975 10.7175 8.25 12 8.25C12.51 8.25 13.02 8.34 13.5 8.505V0L12.375 1.125ZM11.25 8.25H2.25V6.75H11.25V8.25ZM11.25 5.25H2.25V3.75H11.25V5.25Z" fill="#303030"/>
</svg>
