<svg width="21" height="24" viewBox="0 0 21 24" fill="none" xmlns="http://www.w3.org/2000/svg">
<path d="M2.28571 0C1.01714 0 0 1.01714 0 2.28571V20.5714C0 21.1776 0.240816 21.759 0.66947 22.1877C1.09812 22.6163 1.67951 22.8571 2.28571 22.8571H6.85714V20.6743L9.24572 18.2857H2.28571V16H11.5314L13.8171 13.7143H2.28571V11.4286H16.1029L18.2857 9.24572V6.85714L11.4286 0H2.28571ZM10.2857 1.71429L16.5714 8H10.2857V1.71429ZM18.4571 12.5714C18.2857 12.5714 18.1257 12.6286 18 12.7543L16.8343 13.92L19.2229 16.2971L20.3886 15.1429C20.6286 14.8914 20.6286 14.48 20.3886 14.24L18.9029 12.7543C18.7771 12.6286 18.6171 12.5714 18.4571 12.5714ZM16.16 14.5943L9.14286 21.6229V24H11.52L18.5486 16.9714L16.16 14.5943Z" fill="#FAFAFA"/>
</svg>
