<svg width="24" height="24" viewBox="0 0 24 24" fill="none" xmlns="http://www.w3.org/2000/svg">
<path d="M2 6.5C2 5.11914 3.11914 4 4.5 4H19.5C20.8789 4 22 5.11914 22 6.5V16.5C22 17.8789 20.8789 19 19.5 19H4.5C3.11914 19 2 17.8789 2 16.5V6.5ZM3.875 6.5V7.36328L10.6133 12.8945C11.418 13.5586 12.582 13.5586 13.3867 12.8945L20.125 7.36328V6.46484C20.125 6.15625 19.8438 5.83984 19.5 5.83984H4.5C4.15469 5.83984 3.875 6.15625 3.875 6.46484V6.5ZM3.875 9.78906V16.5C3.875 16.8438 4.15469 17.125 4.5 17.125H19.5C19.8438 17.125 20.125 16.8438 20.125 16.5V9.78906L14.5781 14.3438C13.0781 15.5742 10.9219 15.5742 9.38672 14.3438L3.875 9.78906Z" fill="#303030"/>
</svg>
