<svg width="30" height="24" viewBox="0 0 30 24" fill="none" xmlns="http://www.w3.org/2000/svg">
<path d="M27 0C27.7956 0 28.5587 0.31607 29.1213 0.87868C29.6839 1.44129 30 2.20435 30 3V21C30 21.7956 29.6839 22.5587 29.1213 23.1213C28.5587 23.6839 27.7956 24 27 24H3C2.20435 24 1.44129 23.6839 0.87868 23.1213C0.31607 22.5587 0 21.7956 0 21V3C0 2.20435 0.31607 1.44129 0.87868 0.87868C1.44129 0.31607 2.20435 0 3 0H27ZM13.5 13.5H10.5V16.5H13.5V13.5ZM25.5 13.5H16.5V16.5H25.5V13.5ZM7.5 7.5H4.5V10.5H7.5V7.5ZM25.5 7.5H10.5V10.5H25.5V7.5Z" fill="#303030"/>
</svg>
