<svg width="18" height="20" viewBox="0 0 18 20" fill="none" xmlns="http://www.w3.org/2000/svg">
<path d="M17.1429 16.1905V17.1429H0V16.1905L1.90476 14.2857V8.57143C1.90476 5.61905 3.83809 3.01905 6.66667 2.18095C6.66667 2.08571 6.66667 2 6.66667 1.90476C6.66667 1.39959 6.86735 0.915104 7.22456 0.557892C7.58177 0.20068 8.06625 0 8.57143 0C9.0766 0 9.56109 0.20068 9.9183 0.557892C10.2755 0.915104 10.4762 1.39959 10.4762 1.90476C10.4762 2 10.4762 2.08571 10.4762 2.18095C13.3048 3.01905 15.2381 5.61905 15.2381 8.57143V14.2857L17.1429 16.1905ZM10.4762 18.0952C10.4762 18.6004 10.2755 19.0849 9.9183 19.4421C9.56109 19.7993 9.0766 20 8.57143 20C8.06625 20 7.58177 19.7993 7.22456 19.4421C6.86735 19.0849 6.66667 18.6004 6.66667 18.0952" fill="#FAFAFA"/>
</svg>
