<svg width="23" height="27" viewBox="0 0 23 27" fill="none" xmlns="http://www.w3.org/2000/svg">
<path d="M22.5 21.25V22.5H0V21.25L2.5 18.75V11.25C2.5 7.375 5.0375 3.9625 8.75 2.8625C8.75 2.7375 8.75 2.625 8.75 2.5C8.75 1.83696 9.01339 1.20107 9.48223 0.732233C9.95107 0.263392 10.587 0 11.25 0C11.913 0 12.5489 0.263392 13.0178 0.732233C13.4866 1.20107 13.75 1.83696 13.75 2.5C13.75 2.625 13.75 2.7375 13.75 2.8625C17.4625 3.9625 20 7.375 20 11.25V18.75L22.5 21.25ZM13.75 23.75C13.75 24.413 13.4866 25.0489 13.0178 25.5178C12.5489 25.9866 11.913 26.25 11.25 26.25C10.587 26.25 9.95107 25.9866 9.48223 25.5178C9.01339 25.0489 8.75 24.413 8.75 23.75" fill="#303030"/>
</svg>
