<svg width="19" height="20" viewBox="0 0 19 20" fill="none" xmlns="http://www.w3.org/2000/svg">
<path d="M14.915 2.87059L13.1931 4.57647C15.2475 5.81176 16.625 8.0353 16.625 10.5882C16.625 12.4604 15.8743 14.2558 14.5381 15.5796C13.2019 16.9034 11.3897 17.6471 9.5 17.6471C7.61033 17.6471 5.79806 16.9034 4.46186 15.5796C3.12567 14.2558 2.375 12.4604 2.375 10.5882C2.375 8.0353 3.7525 5.81177 5.795 4.56471L4.085 2.87059C1.615 4.56471 0 7.38824 0 10.5882C0 13.0844 1.00089 15.4783 2.78249 17.2434C4.56408 19.0084 6.98044 20 9.5 20C12.0196 20 14.4359 19.0084 16.2175 17.2434C17.9991 15.4783 19 13.0844 19 10.5882C19 7.38824 17.385 4.56471 14.915 2.87059ZM10.6875 0H8.3125V11.7647H10.6875" fill="#E53935"/>
</svg>
