<svg width="25" height="25" viewBox="0 0 25 25" fill="none" xmlns="http://www.w3.org/2000/svg">
<path d="M10.58 13.6643L10.8779 13.0874L8.92583 11.1353L3.14526 16.9159C2.81264 17.2381 2.54747 17.6234 2.36517 18.0491C2.18288 18.4749 2.0871 18.9326 2.08342 19.3958C2.07974 19.8589 2.16824 20.3181 2.34375 20.7467C2.51925 21.1753 2.77828 21.5647 3.10573 21.8922C3.43318 22.2197 3.82251 22.4789 4.25107 22.6545C4.67962 22.8301 5.13883 22.9187 5.60195 22.9151C6.06507 22.9115 6.52286 22.8158 6.94865 22.6336C7.37444 22.4514 7.75973 22.1863 8.08209 21.8538L12.223 17.7129L11.0191 16.509C10.6527 16.1433 10.4125 15.6702 10.3335 15.1586C10.2546 14.647 10.3409 14.1235 10.58 13.6643ZM6.82815 20.5932C6.50679 20.9146 6.07092 21.0951 5.61645 21.0951C5.16198 21.0951 4.72612 20.9146 4.40475 20.5932C4.08339 20.2718 3.90285 19.836 3.90285 19.3815C3.90285 18.927 4.08339 18.4912 4.40475 18.1698L8.60678 13.9689C8.47493 14.635 8.50647 15.3232 8.69872 15.9745C8.89096 16.6257 9.23818 17.2207 9.71065 17.7085L6.82815 20.5932ZM11.2025 6.75318L10.9802 8.67633L13.1367 10.8329L13.7148 10.5339C14.1741 10.2975 14.6966 10.2132 15.2069 10.2931C15.7172 10.3731 16.1889 10.6131 16.554 10.9786L19.6343 14.0578L20.2424 13.6476C21.4123 12.8573 22.2704 11.6841 22.6692 10.3298C23.068 8.97547 22.9827 7.52451 22.4279 6.22626C22.3555 6.05825 22.243 5.91051 22.1004 5.79593C21.9578 5.68134 21.7893 5.60338 21.6096 5.56885C21.4299 5.53432 21.2446 5.54426 21.0696 5.59782C20.8947 5.65137 20.7355 5.7469 20.6059 5.87609L19.5176 6.9655H18.0413L18.0358 5.49035L19.1252 4.40093C19.2547 4.27157 19.3505 4.11247 19.4043 3.93753C19.4581 3.76259 19.4682 3.57714 19.4337 3.39739C19.3993 3.21763 19.3214 3.04905 19.2067 2.90638C19.0921 2.76371 18.9443 2.65128 18.7761 2.57894C17.662 2.09738 16.4287 1.96273 15.2369 2.19256C14.0451 2.42239 12.9503 3.00602 12.0951 3.86734C11.7327 4.23004 11.4171 4.63674 11.1558 5.07792L10.9335 5.44922L11.0902 5.85163C11.1996 6.13834 11.2382 6.44726 11.2025 6.75207V6.75318ZM12.89 5.66154C13.0283 5.46944 13.1818 5.28878 13.3491 5.12128C13.8297 4.63647 14.4197 4.27417 15.0695 4.06486C15.7193 3.85555 16.4099 3.80535 17.0831 3.91847L16.5995 4.40093C16.377 4.62532 16.2523 4.92865 16.2527 5.24467L16.2616 7.5569C16.2648 7.86911 16.3904 8.16759 16.6114 8.38816C16.8323 8.60872 17.1311 8.73375 17.4433 8.73636L19.7488 8.74525C19.9061 8.74597 20.0619 8.71571 20.2074 8.6562C20.353 8.59669 20.4853 8.50909 20.597 8.39842L21.0795 7.92041C21.1924 8.59372 21.1422 9.28428 20.9331 9.93419C20.724 10.5841 20.3621 11.1744 19.8778 11.6555L19.8066 11.7245L17.8057 9.7235C17.415 9.33087 16.9503 9.01957 16.4386 8.80759C15.9268 8.5956 15.3781 8.48714 14.8242 8.48846C14.3783 8.4892 13.9353 8.5601 13.5114 8.69856L12.8444 8.03157L12.9689 6.96439C13.0206 6.52851 12.9939 6.08688 12.89 5.66043V5.66154ZM16.5217 11.9457C16.0821 11.5074 15.4895 11.2566 14.8688 11.2463C14.2481 11.2359 13.6475 11.4667 13.1934 11.8901L10.2365 8.93201L10.5021 6.6698C10.5274 6.45464 10.4935 6.23665 10.404 6.03937C10.3144 5.84209 10.1727 5.67301 9.99412 5.55037L5.26628 2.29436C5.03708 2.13625 4.75969 2.06357 4.48241 2.08896C4.20513 2.11435 3.94555 2.23621 3.74888 2.43331L2.47938 3.7017C2.28239 3.89867 2.16062 4.15842 2.13523 4.43582C2.10985 4.71323 2.18245 4.99077 2.34042 5.22022L5.59644 9.94806C5.7195 10.1262 5.88866 10.2676 6.08582 10.357C6.28299 10.4465 6.50076 10.4808 6.71587 10.4561L8.97919 10.1904L11.9362 13.1452C11.5128 13.599 11.2821 14.1994 11.2924 14.82C11.3028 15.4405 11.5535 16.0329 11.9918 16.4723L17.9846 22.4652C18.1086 22.5896 18.2558 22.6883 18.418 22.7556C18.5801 22.8229 18.754 22.8576 18.9296 22.8576C19.1051 22.8576 19.279 22.8229 19.4411 22.7556C19.6033 22.6883 19.7505 22.5896 19.8745 22.4652L22.518 19.8217C22.6423 19.6978 22.741 19.5505 22.8083 19.3884C22.8756 19.2262 22.9103 19.0524 22.9103 18.8768C22.9103 18.7012 22.8756 18.5274 22.8083 18.3653C22.741 18.2031 22.6423 18.0558 22.518 17.9319L16.5217 11.9457ZM6.85927 8.64743L4.08015 4.61437L4.6571 4.03631L8.69127 6.81543L8.49784 8.45622L6.85927 8.64743ZM18.9273 20.8967L13.2501 15.2184C13.1343 15.1025 13.0693 14.9453 13.0693 14.7815C13.0693 14.6177 13.1343 14.4605 13.2501 14.3446L14.3907 13.203C14.5069 13.0877 14.6639 13.023 14.8276 13.023C14.9912 13.023 15.1483 13.0877 15.2644 13.203L20.9427 18.8813L18.9273 20.8967Z" fill="#303030"/>
</svg>
