<svg width="25" height="25" viewBox="0 0 25 25" fill="none" xmlns="http://www.w3.org/2000/svg">
<path d="M10.5801 13.6643L10.8781 13.0874L8.92601 11.1353L3.14544 16.9159C2.81283 17.2381 2.54765 17.6234 2.36536 18.0491C2.18306 18.4749 2.08729 18.9326 2.08361 19.3958C2.07993 19.8589 2.16842 20.3181 2.34393 20.7467C2.51944 21.1753 2.77846 21.5647 3.10591 21.8922C3.43336 22.2197 3.8227 22.4789 4.25125 22.6545C4.6798 22.8301 5.13901 22.9187 5.60213 22.9151C6.06526 22.9115 6.52304 22.8158 6.94883 22.6336C7.37462 22.4514 7.75991 22.1863 8.08227 21.8538L12.2232 17.7129L11.0192 16.509C10.6528 16.1433 10.4127 15.6702 10.3337 15.1586C10.2547 14.647 10.3411 14.1235 10.5801 13.6643ZM6.82833 20.5932C6.50697 20.9146 6.07111 21.0951 5.61663 21.0951C5.16216 21.0951 4.7263 20.9146 4.40494 20.5932C4.08358 20.2718 3.90304 19.836 3.90304 19.3815C3.90304 18.927 4.08358 18.4912 4.40494 18.1698L8.60697 13.9689C8.47511 14.635 8.50665 15.3232 8.6989 15.9745C8.89115 16.6257 9.23837 17.2207 9.71083 17.7085L6.82833 20.5932ZM11.2027 6.75318L10.9803 8.67633L13.1369 10.8329L13.715 10.5339C14.1743 10.2975 14.6968 10.2132 15.2071 10.2931C15.7174 10.3731 16.1891 10.6131 16.5541 10.9786L19.6345 14.0578L20.2426 13.6476C21.4125 12.8573 22.2705 11.6841 22.6694 10.3298C23.0682 8.97547 22.9829 7.52451 22.4281 6.22626C22.3557 6.05825 22.2432 5.91051 22.1006 5.79593C21.958 5.68134 21.7895 5.60338 21.6098 5.56885C21.4301 5.53432 21.2447 5.54426 21.0698 5.59782C20.8948 5.65137 20.7357 5.7469 20.6061 5.87609L19.5178 6.9655H18.0415L18.036 5.49035L19.1254 4.40093C19.2549 4.27157 19.3507 4.11247 19.4045 3.93753C19.4583 3.76259 19.4684 3.57714 19.4339 3.39739C19.3995 3.21763 19.3216 3.04905 19.2069 2.90638C19.0923 2.76371 18.9444 2.65128 18.7763 2.57894C17.6622 2.09738 16.4289 1.96273 15.2371 2.19256C14.0453 2.42239 12.9505 3.00602 12.0953 3.86734C11.7329 4.23004 11.4173 4.63674 11.156 5.07792L10.9336 5.44922L11.0904 5.85163C11.1998 6.13834 11.2383 6.44726 11.2027 6.75207V6.75318ZM12.8901 5.66154C13.0285 5.46944 13.182 5.28878 13.3493 5.12128C13.8299 4.63647 14.4199 4.27417 15.0697 4.06486C15.7195 3.85555 16.4101 3.80535 17.0833 3.91847L16.5997 4.40093C16.3772 4.62532 16.2525 4.92865 16.2529 5.24467L16.2618 7.5569C16.265 7.86911 16.3906 8.16759 16.6115 8.38816C16.8325 8.60872 17.1312 8.73375 17.4435 8.73636L19.749 8.74525C19.9062 8.74597 20.0621 8.71571 20.2076 8.6562C20.3531 8.59669 20.4855 8.50909 20.5972 8.39842L21.0797 7.92041C21.1926 8.59372 21.1424 9.28428 20.9333 9.93419C20.7242 10.5841 20.3623 11.1744 19.878 11.6555L19.8068 11.7245L17.8059 9.7235C17.4151 9.33087 16.9505 9.01957 16.4387 8.80759C15.927 8.5956 15.3783 8.48714 14.8244 8.48846C14.3785 8.4892 13.9355 8.5601 13.5116 8.69856L12.8446 8.03157L12.9691 6.96439C13.0208 6.52851 12.9941 6.08688 12.8901 5.66043V5.66154ZM16.5219 11.9457C16.0822 11.5074 15.4897 11.2566 14.869 11.2463C14.2482 11.2359 13.6477 11.4667 13.1936 11.8901L10.2366 8.93201L10.5023 6.6698C10.5276 6.45464 10.4937 6.23665 10.4041 6.03937C10.3146 5.84209 10.1729 5.67301 9.9943 5.55037L5.26646 2.29436C5.03727 2.13625 4.75987 2.06357 4.48259 2.08896C4.20532 2.11435 3.94573 2.23621 3.74907 2.43331L2.47956 3.7017C2.28257 3.89867 2.1608 4.15842 2.13542 4.43582C2.11003 4.71323 2.18263 4.99077 2.34061 5.22022L5.59662 9.94806C5.71969 10.1262 5.88884 10.2676 6.086 10.357C6.28317 10.4465 6.50094 10.4808 6.71605 10.4561L8.97937 10.1904L11.9364 13.1452C11.513 13.599 11.2823 14.1994 11.2926 14.82C11.303 15.4405 11.5537 16.0329 11.9919 16.4723L17.9848 22.4652C18.1088 22.5896 18.256 22.6883 18.4182 22.7556C18.5803 22.8229 18.7542 22.8576 18.9297 22.8576C19.1053 22.8576 19.2791 22.8229 19.4413 22.7556C19.6034 22.6883 19.7507 22.5896 19.8746 22.4652L22.5181 19.8217C22.6425 19.6978 22.7412 19.5505 22.8085 19.3884C22.8758 19.2262 22.9105 19.0524 22.9105 18.8768C22.9105 18.7012 22.8758 18.5274 22.8085 18.3653C22.7412 18.2031 22.6425 18.0558 22.5181 17.9319L16.5219 11.9457ZM6.85946 8.64743L4.08034 4.61437L4.65728 4.03631L8.69145 6.81543L8.49803 8.45622L6.85946 8.64743ZM18.9275 20.8967L13.2503 15.2184C13.1345 15.1025 13.0695 14.9453 13.0695 14.7815C13.0695 14.6177 13.1345 14.4605 13.2503 14.3446L14.3909 13.203C14.5071 13.0877 14.6641 13.023 14.8278 13.023C14.9914 13.023 15.1484 13.0877 15.2646 13.203L20.9429 18.8813L18.9275 20.8967Z" fill="#303030"/>
</svg>
