<svg width="25" height="25" viewBox="0 0 25 25" fill="none" xmlns="http://www.w3.org/2000/svg">
<path d="M21.1427 13.4525C21.217 12.8199 21.217 12.1808 21.1427 11.5483L22.5362 9.644C22.6241 9.52319 22.6803 9.38234 22.6999 9.23424C22.7195 9.08615 22.7017 8.93552 22.6482 8.79604C22.2511 7.75546 21.6907 6.78481 20.9881 5.9206C20.8937 5.80469 20.7718 5.71425 20.6335 5.65751C20.4951 5.60077 20.3448 5.57954 20.1962 5.59576L17.854 5.85115C17.3415 5.47085 16.7867 5.15134 16.2006 4.89902L15.2485 2.74049C15.1886 2.60438 15.0959 2.4853 14.9785 2.39398C14.8612 2.30266 14.723 2.24197 14.5764 2.21737C13.4765 2.03871 12.355 2.03871 11.2551 2.21737C11.1085 2.24197 10.9703 2.30266 10.853 2.39398C10.7356 2.4853 10.6429 2.60438 10.583 2.74049L9.63202 4.89902C9.3369 5.02623 9.04929 5.17022 8.77062 5.33028C8.49469 5.48918 8.22837 5.66423 7.97307 5.85451L5.63418 5.59464C5.48556 5.57842 5.33524 5.59965 5.19692 5.65639C5.05859 5.71313 4.93666 5.80357 4.84223 5.91948C4.13889 6.78319 3.57912 7.75446 3.18441 8.79604C3.13092 8.93552 3.11316 9.08615 3.13272 9.23424C3.15228 9.38234 3.20856 9.52319 3.29642 9.644L4.68989 11.5483C4.61605 12.1809 4.61605 12.8199 4.68989 13.4525L3.29642 15.3568C3.20856 15.4776 3.15228 15.6184 3.13272 15.7665C3.11316 15.9146 3.13092 16.0653 3.18441 16.2047C3.58135 17.2457 4.14174 18.2168 4.84448 19.0813C4.93902 19.197 5.06101 19.2872 5.19932 19.3438C5.33764 19.4003 5.4879 19.4214 5.63643 19.405L7.98203 19.1507C8.49325 19.5307 9.04697 19.8499 9.63202 20.1018L10.5841 22.2603C10.644 22.3964 10.7367 22.5155 10.8541 22.6068C10.9714 22.6981 11.1096 22.7588 11.2562 22.7834C12.3558 22.9611 13.4768 22.9611 14.5764 22.7834C14.724 22.7597 14.8634 22.6994 14.9817 22.608C15.1001 22.5166 15.1937 22.3971 15.2541 22.2603L16.2062 20.0995C16.7902 19.8457 17.3434 19.5263 17.8551 19.1474L20.2074 19.4039C20.3558 19.4199 20.5059 19.3986 20.644 19.3419C20.7822 19.2851 20.9039 19.1948 20.9982 19.0791C21.7029 18.2156 22.2631 17.2438 22.6572 16.2014C22.7105 16.0621 22.7281 15.9116 22.7086 15.7638C22.689 15.6159 22.6328 15.4752 22.5452 15.3545L21.1427 13.4525ZM19.3225 11.4519C19.4362 12.144 19.4362 12.85 19.3225 13.5421C19.3035 13.6593 19.308 13.779 19.3357 13.8944C19.3634 14.0097 19.4137 14.1185 19.4838 14.2142L20.7955 16.0065C20.5522 16.5565 20.2519 17.0795 19.8994 17.5668L17.687 17.3271C17.5674 17.3133 17.4463 17.3238 17.3308 17.3579C17.2153 17.3919 17.1079 17.4489 17.015 17.5254C16.4734 17.9675 15.864 18.3193 15.2104 18.5672C15.0989 18.6092 14.9968 18.673 14.9103 18.755C14.8237 18.8369 14.7544 18.9353 14.7063 19.0443L13.8102 21.0785C13.2118 21.1413 12.6085 21.1413 12.0101 21.0785L11.114 19.0466C11.0658 18.9377 10.9964 18.8396 10.9099 18.7578C10.8233 18.6761 10.7213 18.6124 10.6099 18.5705C9.95496 18.3234 9.34469 17.9712 8.8031 17.5276C8.70857 17.4509 8.59955 17.394 8.48253 17.3603C8.36552 17.3266 8.24292 17.3169 8.12205 17.3316L5.93102 17.5702C5.75471 17.3263 5.59096 17.0736 5.4404 16.813C5.29002 16.5529 5.15317 16.2852 5.03042 16.011L6.341 14.2187C6.41104 14.1229 6.46137 14.0142 6.48906 13.8988C6.51675 13.7835 6.52125 13.6637 6.5023 13.5466C6.3886 12.8553 6.3886 12.15 6.5023 11.4586C6.52125 11.3415 6.51675 11.2218 6.48906 11.1064C6.46137 10.9911 6.41104 10.8823 6.341 10.7866L5.0293 8.99431C5.27248 8.44456 5.57284 7.92192 5.92543 7.43505L8.13213 7.67476C8.25065 7.68764 8.37054 7.67673 8.4848 7.64269C8.59905 7.60864 8.70536 7.55214 8.7975 7.4765C9.06796 7.25544 9.35605 7.05688 9.6589 6.88282C9.96145 6.70824 10.2776 6.5584 10.6043 6.43475C10.716 6.39286 10.8183 6.32907 10.905 6.24712C10.9918 6.16518 11.0613 6.06674 11.1095 5.95757L12.0056 3.92561C12.604 3.86232 13.2074 3.86232 13.8057 3.92561L14.7018 5.95757C14.75 6.06674 14.8195 6.16518 14.9063 6.24712C14.993 6.32907 15.0953 6.39286 15.207 6.43475C15.8629 6.68128 16.474 7.03356 17.0161 7.47762C17.1082 7.55292 17.2143 7.60914 17.3284 7.64299C17.4424 7.67684 17.5621 7.68764 17.6803 7.67476L19.8848 7.43505C20.0607 7.67819 20.2241 7.93019 20.3743 8.19004C20.5249 8.4504 20.6617 8.71849 20.7843 8.99319L19.4748 10.7854C19.338 10.9787 19.2832 11.2184 19.3225 11.4519ZM16.4997 9.56895C15.7864 8.69361 14.7769 8.11016 13.6623 7.92904C13.1685 7.8495 12.6652 7.8495 12.1714 7.92904C11.4943 8.04013 10.8504 8.3002 10.286 8.69045C9.72165 9.08071 9.25101 9.59142 8.90805 10.1857C8.5651 10.78 8.35838 11.443 8.30285 12.1269C8.24731 12.8108 8.34434 13.4985 8.58691 14.1403C8.58996 14.1503 8.59371 14.16 8.59811 14.1694C8.93507 15.0408 9.52771 15.7899 10.2982 16.3182C11.0687 16.8466 11.9809 17.1296 12.9152 17.13C13.164 17.1304 13.4124 17.1102 13.6579 17.0695C14.4614 16.94 15.2165 16.6009 15.8471 16.0864C16.4778 15.5719 16.9616 14.9002 17.2498 14.1391C17.538 13.3779 17.6204 12.5542 17.4887 11.7511C17.357 10.9479 17.0159 10.1937 16.4997 9.56447V9.56895ZM15.5711 13.5074C15.4631 13.7948 15.3083 14.0624 15.1129 14.2994C14.8468 14.6252 14.5116 14.8879 14.1315 15.0682C13.7514 15.2486 13.3359 15.3421 12.9152 15.3421C12.4945 15.3421 12.079 15.2486 11.6989 15.0682C11.3188 14.8879 10.9835 14.6252 10.7174 14.2994C10.5239 14.0645 10.3699 13.7997 10.2615 13.5153C10.2583 13.5061 10.2546 13.4971 10.2503 13.4884C10.0142 12.8429 10.0177 12.1341 10.2604 11.4911C10.3686 11.2047 10.523 10.9379 10.7174 10.7014C10.9834 10.3752 11.3187 10.1122 11.6989 9.9316C12.0791 9.751 12.4948 9.6573 12.9157 9.6573C13.3367 9.6573 13.7524 9.751 14.1326 9.9316C14.5128 10.1122 14.8481 10.3752 15.1141 10.7014C15.4289 11.0872 15.6369 11.549 15.7171 12.0405C15.7973 12.532 15.7469 13.0359 15.5711 13.5018V13.5074Z" fill="#303030"/>
</svg>
