<svg width="24" height="24" viewBox="0 0 24 24" fill="none" xmlns="http://www.w3.org/2000/svg">
<path d="M13.625 13.875H9.875C6.07812 13.875 3 16.9531 3 20.75C3 21.4402 3.55977 22 4.25 22H19.25C19.9402 22 20.5 21.4402 20.5 20.75C20.5 16.9531 17.4219 13.875 13.625 13.875ZM4.91367 20.125C5.22227 17.6602 7.32812 15.75 9.875 15.75H13.625C16.1703 15.75 18.2773 17.6621 18.5859 20.125H4.91367ZM11.75 12C14.5113 12 16.75 9.76133 16.75 7C16.75 4.23867 14.5113 2 11.75 2C8.98867 2 6.75 4.23867 6.75 7C6.75 9.76172 8.98828 12 11.75 12ZM11.75 3.875C13.473 3.875 14.875 5.27695 14.875 7C14.875 8.72305 13.473 10.125 11.75 10.125C10.027 10.125 8.625 8.72266 8.625 7C8.625 5.27695 10.0273 3.875 11.75 3.875Z" fill="black"/>
</svg>
