<svg width="24" height="24" viewBox="0 0 24 24" fill="none" xmlns="http://www.w3.org/2000/svg">
<path d="M6.70933 6.89903C8.09369 5.82092 9.86868 4.99999 11.9999 4.99999C14.5249 4.99999 16.5467 6.15123 18.0186 7.51871C19.4811 8.87495 20.4592 10.4718 20.9217 11.6156C21.0248 11.8624 21.0248 12.1374 20.9217 12.3843C20.503 13.3937 19.6623 14.8155 18.4249 16.0843L21.7123 18.6592C22.0373 18.9155 22.0967 19.3874 21.8405 19.7124C21.5842 20.0374 21.1123 20.0967 20.7873 19.8405L2.28737 5.3403C1.96137 5.08467 1.90421 4.61343 2.15974 4.28737C2.4153 3.96137 2.88655 3.90421 3.2128 4.15974L6.70933 6.89903ZM7.93119 7.85934L9.36868 8.98433C10.0718 8.37183 10.9937 7.99996 11.9999 7.99996C14.2093 7.99996 15.9999 9.79057 15.9999 11.9999C15.9999 12.6624 15.8405 13.2843 15.5561 13.8343L17.2374 15.153C18.2842 14.0874 19.0592 12.8468 19.4561 11.9999C19.003 11.0343 18.1999 9.73432 16.9967 8.61558C15.7124 7.42497 14.0374 6.47185 11.9999 6.47185C10.4218 6.47185 9.03431 7.05403 7.93119 7.85934ZM14.3405 12.8812C14.4436 12.6062 14.4999 12.3093 14.4999 11.9718C14.4999 10.6187 13.3811 9.47182 11.9999 9.47182C11.978 9.47182 11.9593 9.49995 11.9093 9.49995C11.978 9.65932 11.9999 9.82807 11.9999 9.97182C11.9999 10.3187 11.9249 10.6187 11.7937 10.8843L14.3405 12.8812ZM14.6343 16.953L15.9436 17.9843C14.8093 18.5967 13.4936 18.9999 11.9999 18.9999C9.47493 18.9999 7.45307 17.8499 5.98121 16.4811C4.51935 15.0968 3.54186 13.4999 3.07686 12.3843C2.97436 12.1374 2.97436 11.8624 3.07686 11.6156C3.37498 10.8999 3.88404 9.97494 4.59653 9.04683L5.77496 9.97494C5.19059 10.7031 4.80497 11.4249 4.54529 11.9718C4.96934 12.9374 5.79996 14.2655 7.00308 15.3843C8.28744 16.5749 9.96243 17.4999 11.9999 17.4999C12.9593 17.4999 13.8374 17.2936 14.6343 16.953ZM7.99994 11.9718C7.99994 11.9093 8.00307 11.8218 8.00932 11.7343L9.76243 13.1155C10.0906 13.7749 10.703 14.2687 11.4374 14.4093L13.1937 15.8186C12.8155 15.9093 12.4155 15.9999 11.9718 15.9999C9.79055 15.9999 7.97182 14.2093 7.97182 11.9718H7.99994Z" fill="#303030"/>
</svg>
