<svg width="24" height="24" viewBox="0 0 24 24" fill="none" xmlns="http://www.w3.org/2000/svg">
<path d="M7.5558 11.7781C7.5558 9.32315 9.54547 7.33348 12.0004 7.33348C14.4554 7.33348 16.4451 9.32315 16.4451 11.7781C16.4451 14.2331 14.4554 16.2227 12.0004 16.2227C9.54547 16.2227 7.5558 14.2331 7.5558 11.7781ZM12.0004 14.556C13.5352 14.556 14.7783 13.3129 14.7783 11.7781C14.7783 10.2433 13.5352 9.00022 12.0004 9.00022C11.9761 9.00022 11.9553 9.00022 11.8997 9.00022C11.9761 9.17731 12.0004 9.36481 12.0004 9.5558C12.0004 10.7815 11.0039 11.7781 9.77812 11.7781C9.58714 11.7781 9.39963 11.7538 9.22254 11.6774C9.22254 11.733 9.22254 11.7538 9.22254 11.7469C9.22254 13.3129 10.4656 14.556 12.0004 14.556ZM5.31334 6.79873C6.94813 5.27922 9.19476 4 12.0004 4C14.8061 4 17.0527 5.27922 18.6882 6.79873C20.3133 8.30574 21.4002 10.0801 21.9141 11.351C22.0286 11.6253 22.0286 11.9309 21.9141 12.2052C21.4002 13.4449 20.3133 15.2192 18.6882 16.7575C17.0527 18.2784 14.8061 19.5562 12.0004 19.5562C9.19476 19.5562 6.94813 18.2784 5.31334 16.7575C3.68827 15.2192 2.60211 13.4449 2.08546 12.2052C1.97151 11.9309 1.97151 11.6253 2.08546 11.351C2.60211 10.0801 3.68827 8.30574 5.31334 6.79873ZM12.0004 5.66674C9.73645 5.66674 7.87526 6.69456 6.44811 8.01753C5.11125 9.26064 4.18829 10.7052 3.71675 11.7781C4.18829 12.8198 5.11125 14.2956 6.44811 15.5387C7.87526 16.8617 9.73645 17.8895 12.0004 17.8895C14.2644 17.8895 16.1256 16.8617 17.5528 15.5387C18.8896 14.2956 19.782 12.8198 20.2855 11.7781C19.782 10.7052 18.8896 9.26064 17.5528 8.01753C16.1256 6.69456 14.2644 5.66674 12.0004 5.66674Z" fill="#303030"/>
</svg>
