<svg xmlns="http://www.w3.org/2000/svg" version="1.1" xmlns:xlink="http://www.w3.org/1999/xlink" xmlns:svgjs="http://svgjs.com/svgjs" width="1440" height="560" preserveAspectRatio="none" viewBox="0 0 1440 560"><g mask="url(&quot;#SvgjsMask1037&quot;)" fill="none"><path d="M 0,46 C 48,61.6 144,121 240,124 C 336,127 384,60.8 480,61 C 576,61.2 624,136.8 720,125 C 816,113.2 864,6.8 960,2 C 1056,-2.8 1104,88.8 1200,101 C 1296,113.2 1392,70.6 1440,63L1440 560L0 560z" fill="rgba(253, 255, 76, 1)"></path><path d="M 0,259 C 72,266.4 216,298.6 360,296 C 504,293.4 576,241.4 720,246 C 864,250.6 936,322.2 1080,319 C 1224,315.8 1368,247.8 1440,230L1440 560L0 560z" fill="rgba(227, 229, 68, 1)"></path><path d="M 0,441 C 57.6,464.2 172.8,558.8 288,557 C 403.2,555.2 460.8,445.8 576,432 C 691.2,418.2 748.8,499.4 864,488 C 979.2,476.6 1036.8,376.4 1152,375 C 1267.2,373.6 1382.4,459.8 1440,481L1440 560L0 560z" fill="rgba(202, 204, 60, 1)"></path></g><defs><mask id="SvgjsMask1037"><rect width="1440" height="560" fill="#ffffff"></rect></mask></defs></svg>